<svg xmlns="http://www.w3.org/2000/svg" viewBox="0 0 606.76 205.98"><defs><style>.cls-1{fill:#231e46;}.cls-2{fill:#3099b0;}.cls-3{fill:#fdd67f;}.cls-4{fill:#e83952;}</style></defs><g id="Calque_2" data-name="Calque 2"><g id="Calque_1-2" data-name="Calque 1"><polygon class="cls-1" points="606.76 38.79 552.92 38.79 488.99 105.45 541.98 105.45 606.76 38.79"/><path class="cls-2" d="M75.39,0A85.9,85.9,0,0,0,46.3,4.92a70.31,70.31,0,0,0-24,14.21A67.43,67.43,0,0,0,6,41.8,72.53,72.53,0,0,0,0,71.44H43.45a40.9,40.9,0,0,1,2-12.43,33.31,33.31,0,0,1,6-11.07,30.28,30.28,0,0,1,10-7.78,30.79,30.79,0,0,1,13.93-3,30.86,30.86,0,0,1,13.94,3,32,32,0,0,1,10.1,7.78A34.1,34.1,0,0,1,105.72,59a38.74,38.74,0,0,1,2.16,12.43h43.17a72.21,72.21,0,0,0-6-29.64,66.65,66.65,0,0,0-16.38-22.67,72.35,72.35,0,0,0-24-14.21A85.72,85.72,0,0,0,75.39,0"/><path class="cls-3" d="M269.63,4.37l-27,87.42h-.82l-6.34-18.28H191.06l27.48,64.72-4.37,11.2q-3.28,8.74-7.92,13.53t-15,4.78a44.57,44.57,0,0,1-7.24-.68,51.47,51.47,0,0,1-7.24-1.78L171.82,203a80.88,80.88,0,0,0,11.62,2.19,107.88,107.88,0,0,0,13,.81,73.77,73.77,0,0,0,22.27-3,47.77,47.77,0,0,0,16.39-8.88,57.41,57.41,0,0,0,12-14.2,119,119,0,0,0,9.15-19L317.16,4.37Z"/><path class="cls-4" d="M401,0a79.42,79.42,0,0,0-29,5.19,69.19,69.19,0,0,0-23.22,14.62,68.28,68.28,0,0,0-15.58,22.94,76.71,76.71,0,0,0-5.73,30.19,90.78,90.78,0,0,0,.75,11.75H469.05a47.61,47.61,0,0,0,.27-5.19V74q0-17.47-5.05-31.14A67.64,67.64,0,0,0,450.2,19.67,60.32,60.32,0,0,0,428.62,5.05,73.5,73.5,0,0,0,401,0m-30.6,56.82a24.39,24.39,0,0,1,2.73-10,27.86,27.86,0,0,1,6.56-8.33,31.25,31.25,0,0,1,9.56-5.6,33.89,33.89,0,0,1,12-2.05q13.38,0,20.08,7.65a26.87,26.87,0,0,1,6.69,18.3Z"/></g></g></svg>